<?xml version="1.0" encoding="UTF-8"?>
<svg width="44px" height="44px" viewBox="0 0 44 44" version="1.1" xmlns="http://www.w3.org/2000/svg" xmlns:xlink="http://www.w3.org/1999/xlink">
    <!-- Generator: Sketch 52.2 (67145) - http://www.bohemiancoding.com/sketch -->
    <title>nav_icon_share</title>
    <desc>Created with Sketch.</desc>
    <g id="小站主页" stroke="none" stroke-width="1" fill="none" fill-rule="evenodd">
        <g id="小栈主页" transform="translate(-676.000000, -22.000000)" fill="#FFFFFF">
            <g id="顶部">
                <g id="分享icon" transform="translate(676.000000, 22.000000)">
                    <path d="M37.2754332,35.3646264 C37.2754332,36.4127634 36.4250316,37.2631649 35.3768946,37.2631649 L9.74631852,37.2631649 C8.69840401,37.2631649 7.84777999,36.4127634 7.84777999,35.3646264 L7.84777999,11.6325888 C7.84777999,10.5846743 8.69840401,9.73405025 9.74631852,9.73405025 L22.086958,9.73405025 L22.086958,6.88627027 L7.84777999,6.88627027 C6.2758526,6.88627027 5,8.16123292 5,9.73405025 L5,37.2631649 C5,38.8351479 6.2758526,40.1109449 7.84777999,40.1109449 L37.2754332,40.1109449 C38.848473,40.1109449 40.1232131,38.8351479 40.1232131,37.2631649 L40.1232131,27.7705279 L37.2754332,27.7705279 L37.2754332,35.3646264 Z M42.5829755,12.078898 L34.9212409,4.41716342 C34.365023,3.86094553 33.4640057,3.86094553 32.9077878,4.41716342 C32.3515699,4.97254698 32.3515699,5.8744543 32.9077878,6.43067219 L37.2934546,10.8162834 C27.2947705,10.6255563 18.0963171,17.6464723 14.886773,27.2521328 L17.5209654,28.5166385 C20.3518363,19.9578357 29.7818988,12.7860735 38.8000264,13.8055652 L32.9325951,19.6721066 C32.381995,20.2237635 32.381995,21.1178281 32.9325951,21.669485 C33.4840295,22.2209195 34.3774267,22.2209195 34.9297511,21.669485 L42.358931,14.2394152 C42.4339091,14.1890218 42.5164519,14.1577624 42.5818631,14.0912387 C43.1391934,13.5369676 43.1391934,12.6351159 42.5829755,12.078898 Z" id="分享"></path>
                </g>
            </g>
        </g>
    </g>
</svg>